<svg width="63" height="63" viewBox="0 0 63 63" fill="none" xmlns="http://www.w3.org/2000/svg">
<path d="M32.8079 30.3327H31.8079C31.8079 30.885 32.2556 31.3327 32.8079 31.3327V30.3327ZM44.5757 30.3327V31.3327C45.128 31.3327 45.5757 30.885 45.5757 30.3327H44.5757ZM44.5757 26.5357H45.5757C45.5757 25.9835 45.128 25.5357 44.5757 25.5357V26.5357ZM39.5131 26.5357L38.806 25.8286C38.52 26.1146 38.4344 26.5448 38.5892 26.9184C38.744 27.2921 39.1086 27.5357 39.5131 27.5357V26.5357ZM46.9215 19.1274L47.6286 19.8345C48.0191 19.444 48.0191 18.8108 47.6286 18.4203L46.9215 19.1274ZM44.1989 16.4048L44.906 15.6977C44.5154 15.3072 43.8823 15.3072 43.4918 15.6977L44.1989 16.4048ZM36.6499 23.9538H35.6499C35.6499 24.3582 35.8935 24.7229 36.2672 24.8777C36.6409 25.0324 37.071 24.9469 37.357 24.6609L36.6499 23.9538ZM36.6499 18.4074H37.6499C37.6499 18.1391 37.5421 17.8821 37.3507 17.6941C37.1594 17.5061 36.9005 17.4028 36.6323 17.4075L36.6499 18.4074ZM32.8079 18.4692L32.7903 17.4694C32.245 17.4789 31.8079 17.9238 31.8079 18.4692H32.8079ZM30.6141 44.5701H29.6141C29.6141 44.8353 29.7194 45.0896 29.9068 45.2771L30.6141 44.5701ZM30.6141 32.7122H31.6141C31.6141 32.1599 31.1664 31.7122 30.6141 31.7122V32.7122ZM18.8518 32.7122V31.7122C18.2995 31.7122 17.8518 32.1599 17.8518 32.7122H18.8518ZM18.8518 36.5092H17.8518C17.8518 37.0615 18.2995 37.5092 18.8518 37.5092V36.5092ZM23.9145 36.5092L24.6216 37.2163C24.9076 36.9303 24.9931 36.5002 24.8384 36.1265C24.6836 35.7529 24.3189 35.5092 23.9145 35.5092V36.5092ZM16.5061 43.9176L15.799 43.2105C15.4085 43.601 15.4085 44.2342 15.799 44.6247L16.5061 43.9176ZM19.2287 46.6402L18.5216 47.3473C18.9121 47.7378 19.5453 47.7378 19.9358 47.3473L19.2287 46.6402ZM26.7777 39.0912H27.7777C27.7777 38.6867 27.534 38.3221 27.1604 38.1673C26.7867 38.0125 26.3566 38.0981 26.0706 38.3841L26.7777 39.0912ZM26.7777 44.6376H25.7777C25.7777 44.9059 25.8855 45.1629 26.0768 45.3509C26.2682 45.5389 26.527 45.6422 26.7952 45.6375L26.7777 44.6376ZM30.6197 44.5757L30.6372 45.5756C31.0384 45.5685 31.3965 45.3224 31.5469 44.9504C31.6972 44.5784 31.6106 44.1525 31.3269 43.8688L30.6197 44.5757ZM58.4431 31.5028C58.4431 46.3815 46.3815 58.4431 31.5028 58.4431V60.4431C47.4861 60.4431 60.4431 47.4861 60.4431 31.5028H58.4431ZM31.5028 58.4431C16.6241 58.4431 4.5625 46.3815 4.5625 31.5028H2.5625C2.5625 47.4861 15.5195 60.4431 31.5028 60.4431V58.4431ZM4.5625 31.5028C4.5625 16.6241 16.6241 4.5625 31.5028 4.5625V2.5625C15.5195 2.5625 2.5625 15.5195 2.5625 31.5028H4.5625ZM31.5028 4.5625C46.3815 4.5625 58.4431 16.6241 58.4431 31.5028H60.4431C60.4431 15.5195 47.4861 2.5625 31.5028 2.5625V4.5625ZM31.9879 31.5028C31.9879 31.7707 31.7708 31.9879 31.5029 31.9879V33.9879C32.8753 33.9879 33.9879 32.8753 33.9879 31.5028H31.9879ZM31.5029 31.9879C31.235 31.9879 31.0178 31.7707 31.0178 31.5028H29.0178C29.0178 32.8753 30.1304 33.9879 31.5029 33.9879V31.9879ZM31.0178 31.5028C31.0178 31.2349 31.235 31.0178 31.5029 31.0178V29.0178C30.1304 29.0178 29.0178 30.1304 29.0178 31.5028H31.0178ZM31.5029 31.0178C31.7708 31.0178 31.9879 31.2349 31.9879 31.5028H33.9879C33.9879 30.1304 32.8753 29.0178 31.5029 29.0178V31.0178ZM32.8079 31.3327H44.5757V29.3327H32.8079V31.3327ZM45.5757 30.3327V26.5357H43.5757V30.3327H45.5757ZM44.5757 25.5357H39.5131V27.5357H44.5757V25.5357ZM40.2202 27.2429C41.4549 26.0081 42.6896 24.7734 43.9244 23.5387C45.1591 22.3039 46.3938 21.0692 47.6286 19.8345L46.2143 18.4203C44.9796 19.655 43.7449 20.8897 42.5102 22.1245C41.2754 23.3592 40.0407 24.5939 38.806 25.8286L40.2202 27.2429ZM47.6286 18.4203C46.7238 17.5155 45.8164 16.6081 44.906 15.6977L43.4918 17.1119C44.4039 18.0241 45.3078 18.9279 46.2143 19.8345L47.6286 18.4203ZM43.4918 15.6977L35.9428 23.2467L37.357 24.6609L44.906 17.1119L43.4918 15.6977ZM37.6499 23.9538V18.4074H35.6499V23.9538H37.6499ZM36.6323 17.4075C35.9923 17.4187 35.3535 17.4286 34.7135 17.4384C34.0738 17.4482 33.4328 17.4581 32.7903 17.4694L32.8254 19.4691C33.4654 19.4578 34.1042 19.448 34.7442 19.4382C35.3839 19.4283 36.0249 19.4185 36.6674 19.4072L36.6323 17.4075ZM31.6141 44.5701V32.7122H29.6141V44.5701H31.6141ZM30.6141 31.7122H18.8518V33.7122H30.6141V31.7122ZM17.8518 32.7122V36.5092H19.8518V32.7122H17.8518ZM18.8518 37.5092H23.9145V35.5092H18.8518V37.5092ZM23.2074 35.8021C21.9726 37.0368 20.7379 38.2716 19.5032 39.5063C18.2685 40.741 17.0337 41.9758 15.799 43.2105L17.2132 44.6247C18.4479 43.39 19.6827 42.1552 20.9174 40.9205C22.1521 39.6858 23.3869 38.4511 24.6216 37.2163L23.2074 35.8021ZM15.799 44.6247C16.7042 45.5299 17.6107 46.4364 18.5216 47.3473L19.9358 45.9331C19.0241 45.0214 18.1193 44.1166 17.2132 43.2105L15.799 44.6247ZM19.9358 47.3473L27.4848 39.7983L26.0706 38.3841L18.5216 45.9331L19.9358 47.3473ZM25.7777 39.0912V44.6376H27.7777V39.0912H25.7777ZM26.7952 45.6375C27.4352 45.6262 28.074 45.6164 28.7141 45.6066C29.3538 45.5967 29.9947 45.5869 30.6372 45.5756L30.6021 43.5759C29.9621 43.5871 29.3234 43.5969 28.6833 43.6068C28.0436 43.6166 27.4027 43.6265 26.7601 43.6378L26.7952 45.6375ZM31.3269 43.8688L31.3213 43.8631L29.9068 45.2771L29.9125 45.2827L31.3269 43.8688ZM31.8079 18.4692V30.3327H33.8079V18.4692H31.8079Z" fill="#11284A"/>
</svg>
